REM DIRINDEX 1\4,1\2\5,1\2\6,1\3\7,1\3\8
REM DIRNAME folder01,folder02,folder03,folder04,folder05,folder06,folder07,folder08
TITLE ""
FILE "003_Day02_Chech2_Phrases.mp3" MP3
  TRACK 01 AUDIO
    TITLE "0:"
    INDEX 01 00:00:00
  TRACK 02 AUDIO
    TITLE "4:cjc124_0067"
    INDEX 01 00:00:31
  TRACK 03 AUDIO
    TITLE "0:"
    INDEX 01 00:01:46
  TRACK 04 AUDIO
    TITLE "5:cjc124_0068"
    INDEX 01 00:02:00
  TRACK 05 AUDIO
    TITLE "0:"
    INDEX 01 00:03:61
  TRACK 06 AUDIO
    TITLE "6:cjc124_0069"
    INDEX 01 00:04:01
  TRACK 07 AUDIO
    TITLE "0:"
    INDEX 01 00:05:46
  TRACK 08 AUDIO
    TITLE "5:cjc124_0070"
    INDEX 01 00:06:10
  TRACK 09 AUDIO
    TITLE "0:"
    INDEX 01 00:07:74
  TRACK 10 AUDIO
    TITLE "6:cjc124_0071"
    INDEX 01 00:08:34
  TRACK 11 AUDIO
    TITLE "0:"
    INDEX 01 00:10:29
  TRACK 12 AUDIO
    TITLE "5:cjc124_0072"
    INDEX 01 00:10:66
  TRACK 13 AUDIO
    TITLE "0:"
    INDEX 01 00:12:61
  TRACK 14 AUDIO
    TITLE "6:cjc124_0073"
    INDEX 01 00:13:02
  TRACK 15 AUDIO
    TITLE "0:"
    INDEX 01 00:14:43
  TRACK 16 AUDIO
    TITLE "5:cjc124_0074"
    INDEX 01 00:15:07
  TRACK 17 AUDIO
    TITLE "0:"
    INDEX 01 00:16:71
  TRACK 18 AUDIO
    TITLE "6:cjc124_0075"
    INDEX 01 00:17:14
  TRACK 19 AUDIO
    TITLE "0:"
    INDEX 01 00:18:60
  TRACK 20 AUDIO
    TITLE "5:cjc124_0076"
    INDEX 01 00:19:20
  TRACK 21 AUDIO
    TITLE "0:"
    INDEX 01 00:20:63
  TRACK 22 AUDIO
    TITLE "6:cjc124_0077"
    INDEX 01 00:21:02
  TRACK 23 AUDIO
    TITLE "0:"
    INDEX 01 00:22:52
  TRACK 24 AUDIO
    TITLE "5:cjc124_0078"
    INDEX 01 00:23:12
  TRACK 25 AUDIO
    TITLE "0:"
    INDEX 01 00:25:05
  TRACK 26 AUDIO
    TITLE "6:cjc124_0079"
    INDEX 01 00:25:19
  TRACK 27 AUDIO
    TITLE "0:"
    INDEX 01 00:27:04
  TRACK 28 AUDIO
    TITLE "5:cjc124_0080"
    INDEX 01 00:27:41
  TRACK 29 AUDIO
    TITLE "0:"
    INDEX 01 00:29:34
  TRACK 30 AUDIO
    TITLE "6:cjc124_0081"
    INDEX 01 00:29:50
  TRACK 31 AUDIO
    TITLE "0:"
    INDEX 01 00:31:24
  TRACK 32 AUDIO
    TITLE "5:cjc124_0082"
    INDEX 01 00:31:63
  TRACK 33 AUDIO
    TITLE "0:"
    INDEX 01 00:33:34
  TRACK 34 AUDIO
    TITLE "6:cjc124_0083"
    INDEX 01 00:33:66
  TRACK 35 AUDIO
    TITLE "0:"
    INDEX 01 00:35:74
  TRACK 36 AUDIO
    TITLE "5:cjc124_0084"
    INDEX 01 00:36:35
  TRACK 37 AUDIO
    TITLE "0:"
    INDEX 01 00:37:57
  TRACK 38 AUDIO
    TITLE "6:cjc124_0085"
    INDEX 01 00:38:14
  TRACK 39 AUDIO
    TITLE "0:"
    INDEX 01 00:40:07
  TRACK 40 AUDIO
    TITLE "5:cjc124_0086"
    INDEX 01 00:40:46
  TRACK 41 AUDIO
    TITLE "0:"
    INDEX 01 00:42:12
  TRACK 42 AUDIO
    TITLE "6:cjc124_0087"
    INDEX 01 00:42:29
  TRACK 43 AUDIO
    TITLE "0:"
    INDEX 01 00:44:09
  TRACK 44 AUDIO
    TITLE "5:cjc124_0088"
    INDEX 01 00:44:48
  TRACK 45 AUDIO
    TITLE "0:"
    INDEX 01 00:46:07
  TRACK 46 AUDIO
    TITLE "6:cjc124_0089"
    INDEX 01 00:46:21
  TRACK 47 AUDIO
    TITLE "0:"
    INDEX 01 00:47:66
  TRACK 48 AUDIO
    TITLE "5:cjc124_0090"
    INDEX 01 00:48:28
  TRACK 49 AUDIO
    TITLE "0:"
    INDEX 01 00:50:03
  TRACK 50 AUDIO
    TITLE "6:cjc124_0091"
    INDEX 01 00:50:19
  TRACK 51 AUDIO
    TITLE "0:"
    INDEX 01 00:51:46
  TRACK 52 AUDIO
    TITLE "5:cjc124_0092"
    INDEX 01 00:52:10
  TRACK 53 AUDIO
    TITLE "0:"
    INDEX 01 00:53:74
  TRACK 54 AUDIO
    TITLE "6:cjc124_0093"
    INDEX 01 00:54:13
  TRACK 55 AUDIO
    TITLE "0:"
    INDEX 01 00:55:59
  TRACK 56 AUDIO
    TITLE "5:cjc124_0094"
    INDEX 01 00:56:24
  TRACK 57 AUDIO
    TITLE "0:"
    INDEX 01 00:57:66
  TRACK 58 AUDIO
    TITLE "6:cjc124_0095"
    INDEX 01 00:58:07
  TRACK 59 AUDIO
    TITLE "0:"
    INDEX 01 00:59:28
  TRACK 60 AUDIO
    TITLE "5:cjc124_0096"
    INDEX 01 00:59:69
  TRACK 61 AUDIO
    TITLE "0:"
    INDEX 01 01:01:66
  TRACK 62 AUDIO
    TITLE "6:cjc124_0097"
    INDEX 01 01:02:06
  TRACK 63 AUDIO
    TITLE "0:"
    INDEX 01 01:03:47
  TRACK 64 AUDIO
    TITLE "5:cjc124_0098"
    INDEX 01 01:04:13
  TRACK 65 AUDIO
    TITLE "0:"
    INDEX 01 01:06:22
  TRACK 66 AUDIO
    TITLE "6:cjc124_0099"
    INDEX 01 01:06:36
  TRACK 67 AUDIO
    TITLE "0:"
    INDEX 01 01:08:56
